# 3ds Max Wavefront OBJ Exporter v0.99 - (c)2007 guruware
# File Created: 26.11.2022 20:27:45

mtllib AletaTraDerPezCafe.mtl

#
# object AletaTraDer
#

v  -0.4550 -0.8324 2.5069
v  -0.4550 -0.1725 1.9416
v  -0.4550 0.1547 2.5161
v  -0.4550 -0.2412 3.0153
v  -0.4550 -1.4235 1.9984
v  -0.4550 -0.0650 1.0256
v  -0.4550 -1.9825 1.1445
v  -0.4550 -0.7948 0.5055
v  -0.4550 -2.0213 0.5700
v  -0.4550 -1.7651 0.3114
# 10 vertices

vn 1.0000 0.0000 -0.0000
# 1 vertex normals

vt 0.4238 0.1659 0.0000
vt 0.4410 0.2215 0.0000
vt 0.4235 0.2490 0.0000
vt 0.4083 0.2157 0.0000
vt 0.4393 0.1162 0.0000
vt 0.4688 0.2305 0.0000
vt 0.4652 0.0692 0.0000
vt 0.4847 0.1691 0.0000
vt 0.4827 0.0659 0.0000
vt 0.4906 0.0875 0.0000
# 10 texture coords

o AletaTraDer
g AletaTraDer
usemtl Material
s 1
f 1/1/1 2/2/1 3/3/1 
f 3/3/1 4/4/1 1/1/1 
f 5/5/1 6/6/1 2/2/1 
f 2/2/1 1/1/1 5/5/1 
f 5/5/1 7/7/1 8/8/1 
f 8/8/1 6/6/1 5/5/1 
f 7/7/1 9/9/1 10/10/1 
f 10/10/1 8/8/1 7/7/1 
# 8 faces

