# 3ds Max Wavefront OBJ Exporter v0.99 - (c)2007 guruware
# File Created: 26.11.2022 20:26:52

mtllib ColaPezCafe.mtl

#
# object Cola
#

v  0.3413 0.8455 -9.6172
v  0.3242 1.2673 -8.4291
v  0.0000 1.0708 -8.4291
v  0.0000 0.5845 -9.6172
v  -0.3242 1.2673 -8.4291
v  -0.3413 0.8455 -9.6172
v  -0.3182 0.3405 -10.8441
v  0.0000 0.0585 -10.8419
v  0.3182 0.3405 -10.8441
v  0.2760 0.9803 -11.8080
v  0.3771 2.6939 -11.0323
v  0.4243 1.1866 -10.8506
v  0.3680 0.4146 -11.7819
v  0.2760 -0.1511 -11.7557
v  0.2045 -0.3911 -12.1883
v  0.2760 -0.2881 -12.3671
v  0.2045 0.1792 -12.2424
v  -0.3413 4.4993 -9.6172
v  -0.3242 4.0195 -8.4291
v  0.0000 4.2161 -8.4291
v  0.0000 4.7603 -9.6172
v  0.3242 4.0195 -8.4291
v  0.3413 4.4993 -9.6172
v  0.3182 5.0371 -10.8547
v  0.0000 5.3195 -10.8523
v  -0.3182 5.0371 -10.8547
v  0.4550 2.6724 -9.6172
v  0.4323 2.6434 -8.4291
v  0.4323 1.8571 -8.4291
v  0.4550 1.6285 -9.6172
v  -0.4550 2.6724 -9.6172
v  -0.4323 2.6434 -8.4291
v  -0.4323 3.4297 -8.4291
v  -0.4550 3.7163 -9.6172
v  -0.4243 4.1898 -10.8619
v  -0.3771 2.6939 -11.0323
v  -0.4550 1.6285 -9.6172
v  -0.4323 1.8571 -8.4291
v  -0.4243 1.1866 -10.8506
v  0.4550 3.7163 -9.6172
v  0.4323 3.4297 -8.4291
v  0.4243 4.1898 -10.8619
v  -0.2760 4.3409 -11.8559
v  -0.3680 4.9119 -11.8272
v  -0.2760 5.4828 -11.7984
v  -0.2045 5.6727 -12.2560
v  -0.2760 5.5467 -12.4463
v  -0.2045 5.0915 -12.3156
v  0.0000 5.8198 -12.3984
v  0.2045 5.6727 -12.2560
v  0.2760 5.5467 -12.4463
v  0.0000 5.7583 -12.6527
v  0.2045 5.0915 -12.3156
v  0.0000 5.2736 -12.4942
v  0.0000 5.6732 -11.7888
v  0.2760 5.4828 -11.7984
v  0.3680 4.9119 -11.8272
v  0.2760 4.3409 -11.8559
v  0.0000 4.1506 -11.8655
v  0.0000 2.6841 -11.4214
v  0.0000 -0.0237 -12.4106
v  0.0000 -0.5224 -12.5621
v  0.0000 -0.5526 -12.3235
v  -0.2045 -0.3911 -12.1883
v  -0.2760 -0.2881 -12.3671
v  -0.2045 0.1792 -12.2424
v  0.0000 -0.3397 -11.7470
v  -0.2760 -0.1511 -11.7557
v  -0.3680 0.4146 -11.7819
v  -0.2760 0.9803 -11.8080
v  0.0000 1.1689 -11.8167
# 71 vertices

vn 0.8525 -0.4887 0.1857
vn 0.7999 -0.5815 0.1482
vn 0.0000 -0.9464 0.3229
vn 0.0000 -0.9280 0.3725
vn -0.7999 -0.5815 0.1482
vn -0.8525 -0.4887 0.1857
vn -0.8667 -0.4617 0.1890
vn 0.0000 -0.9130 0.4079
vn 0.8667 -0.4617 0.1890
vn 0.7751 0.2490 -0.5807
vn 0.9251 -0.0067 -0.3796
vn 0.9979 -0.0400 -0.0504
vn 0.9864 0.0006 -0.1644
vn 0.8348 -0.5108 0.2053
vn 0.7602 -0.6380 0.1229
vn 0.8507 -0.1582 -0.5012
vn 0.6298 0.3190 -0.7082
vn -0.8492 0.4873 0.2034
vn -0.7988 0.5766 0.1716
vn 0.0000 0.9332 0.3593
vn 0.0000 0.9167 0.3996
vn 0.7988 0.5766 0.1716
vn 0.8492 0.4873 0.2034
vn 0.8639 0.4683 0.1851
vn 0.0000 0.9223 0.3865
vn -0.8639 0.4683 0.1851
vn 0.9999 0.0000 -0.0122
vn 0.9951 0.0000 -0.0993
vn 0.9925 -0.1016 -0.0673
vn 0.9977 -0.0662 0.0136
vn -0.9999 0.0000 -0.0122
vn -0.9951 0.0000 -0.0993
vn -0.9928 0.1017 -0.0630
vn -0.9976 0.0668 0.0164
vn -0.9981 0.0412 -0.0463
vn -0.9251 -0.0067 -0.3796
vn -0.9977 -0.0662 0.0136
vn -0.9925 -0.1016 -0.0673
vn -0.9979 -0.0400 -0.0504
vn 0.9976 0.0668 0.0164
vn 0.9928 0.1017 -0.0630
vn 0.9981 0.0412 -0.0463
vn -0.7866 -0.2672 -0.5567
vn -0.9886 0.0020 -0.1505
vn -0.8377 0.5220 0.1603
vn -0.7693 0.6371 0.0472
vn -0.8510 0.1453 -0.5047
vn -0.6547 -0.3383 -0.6760
vn 0.0000 0.9971 -0.0758
vn 0.7693 0.6371 0.0472
vn 0.8510 0.1453 -0.5047
vn 0.0000 0.5297 -0.8482
vn 0.6547 -0.3383 -0.6760
vn 0.0000 -0.3690 -0.9294
vn 0.0000 0.9495 0.3139
vn 0.8377 0.5220 0.1603
vn 0.9886 0.0020 -0.1505
vn 0.7866 -0.2672 -0.5567
vn 0.0000 -0.4079 -0.9130
vn 0.0000 -0.0169 -0.9999
vn 0.0000 0.3393 -0.9407
vn 0.0000 -0.5869 -0.8096
vn 0.0000 -0.9996 0.0299
vn -0.7602 -0.6380 0.1229
vn -0.8507 -0.1582 -0.5012
vn -0.6298 0.3190 -0.7082
vn 0.0000 -0.9179 0.3969
vn -0.8348 -0.5108 0.2053
vn -0.9864 0.0006 -0.1644
vn -0.7751 0.2490 -0.5807
vn 0.0000 0.3691 -0.9294
vn 0.0000 -0.0000 -1064643008.0000
# 72 vertex normals

vt 0.7925 0.3071 0.0000
vt 0.7563 0.3426 0.0000
vt 0.7563 0.3261 0.0000
vt 0.7925 0.2852 0.0000
vt 0.8298 0.2646 0.0000
vt 0.8297 0.2409 0.0000
vt 0.8591 0.3185 0.0000
vt 0.8355 0.4626 0.0000
vt 0.8300 0.3358 0.0000
vt 0.8583 0.2709 0.0000
vt 0.8575 0.2233 0.0000
vt 0.8707 0.2031 0.0000
vt 0.8761 0.2117 0.0000
vt 0.8723 0.2511 0.0000
vt 0.7925 0.6146 0.0000
vt 0.7563 0.5742 0.0000
vt 0.7563 0.5907 0.0000
vt 0.7925 0.6365 0.0000
vt 0.8301 0.6598 0.0000
vt 0.8300 0.6836 0.0000
vt 0.7925 0.4608 0.0000
vt 0.7563 0.4584 0.0000
vt 0.7563 0.3922 0.0000
vt 0.7925 0.3730 0.0000
vt 0.7563 0.5246 0.0000
vt 0.7925 0.5487 0.0000
vt 0.8303 0.5885 0.0000
vt 0.8605 0.6012 0.0000
vt 0.8597 0.6493 0.0000
vt 0.8588 0.6973 0.0000
vt 0.8727 0.7133 0.0000
vt 0.8785 0.7027 0.0000
vt 0.8745 0.6644 0.0000
vt 0.8770 0.7257 0.0000
vt 0.8848 0.7205 0.0000
vt 0.8800 0.6797 0.0000
vt 0.8585 0.7133 0.0000
vt 0.8608 0.5852 0.0000
vt 0.8473 0.4618 0.0000
vt 0.8774 0.2340 0.0000
vt 0.8820 0.1920 0.0000
vt 0.8748 0.1895 0.0000
vt 0.8572 0.2074 0.0000
vt 0.8594 0.3343 0.0000
# 44 texture coords

o Cola
g Cola
usemtl Material
s 1
f 1/1/1 2/2/2 3/3/3 
f 3/3/3 4/4/4 1/1/1 
f 3/3/3 5/2/5 6/1/6 
f 6/1/6 4/4/4 3/3/3 
f 4/4/4 6/1/6 7/5/7 
f 7/5/7 8/6/8 4/4/4 
f 4/4/4 8/6/8 9/5/9 
f 9/5/9 1/1/1 4/4/4 
f 10/7/10 11/8/11 12/9/12 
f 12/9/12 13/10/13 10/7/10 
f 13/10/13 12/9/12 9/5/9 
f 9/5/9 14/11/14 13/10/13 
f 14/11/14 15/12/15 16/13/16 
f 16/13/16 13/10/13 14/11/14 
f 13/10/13 16/13/16 17/14/17 
f 17/14/17 10/7/10 13/10/13 
f 18/15/18 19/16/19 20/17/20 
f 20/17/20 21/18/21 18/15/18 
f 20/17/20 22/16/22 23/15/23 
f 23/15/23 21/18/21 20/17/20 
f 21/18/21 23/15/23 24/19/24 
f 24/19/24 25/20/25 21/18/21 
f 21/18/21 25/20/25 26/19/26 
f 26/19/26 18/15/18 21/18/21 
f 27/21/27 28/22/28 29/23/29 
f 29/23/29 30/24/30 27/21/27 
f 30/24/30 29/23/29 2/2/2 
f 2/2/2 1/1/1 30/24/30 
f 1/1/1 9/5/9 12/9/12 
f 12/9/12 30/24/30 1/1/1 
f 30/24/30 12/9/12 11/8/11 
f 11/8/11 27/21/27 30/24/30 
f 31/21/31 32/22/32 33/25/33 
f 33/25/33 34/26/34 31/21/31 
f 34/26/34 33/25/33 19/16/19 
f 19/16/19 18/15/18 34/26/34 
f 18/15/18 26/19/26 35/27/35 
f 35/27/35 34/26/34 18/15/18 
f 34/26/34 35/27/35 36/8/36 
f 36/8/36 31/21/31 34/26/34 
f 37/24/37 6/1/6 5/2/5 
f 5/2/5 38/23/38 37/24/37 
f 38/23/38 32/22/32 31/21/31 
f 31/21/31 37/24/37 38/23/38 
f 37/24/37 31/21/31 36/8/36 
f 36/8/36 39/9/39 37/24/37 
f 39/9/39 7/5/7 6/1/6 
f 6/1/6 37/24/37 39/9/39 
f 40/26/40 23/15/23 22/16/22 
f 22/16/22 41/25/41 40/26/40 
f 41/25/41 28/22/28 27/21/27 
f 27/21/27 40/26/40 41/25/41 
f 40/26/40 27/21/27 11/8/11 
f 11/8/11 42/27/42 40/26/40 
f 42/27/42 24/19/24 23/15/23 
f 23/15/23 40/26/40 42/27/42 
f 43/28/43 36/8/36 35/27/35 
f 35/27/35 44/29/44 43/28/43 
f 44/29/44 35/27/35 26/19/26 
f 26/19/26 45/30/45 44/29/44 
f 45/30/45 46/31/46 47/32/47 
f 47/32/47 44/29/44 45/30/45 
f 44/29/44 47/32/47 48/33/48 
f 48/33/48 43/28/43 44/29/44 
f 49/34/49 50/31/50 51/32/51 
f 51/32/51 52/35/52 49/34/49 
f 51/32/51 53/33/53 54/36/54 
f 54/36/54 52/35/52 51/32/51 
f 54/36/54 48/33/48 47/32/47 
f 47/32/47 52/35/52 54/36/54 
f 47/32/47 46/31/46 49/34/49 
f 49/34/49 52/35/52 47/32/47 
f 45/30/45 26/19/26 25/20/25 
f 25/20/25 55/37/55 45/30/45 
f 25/20/25 24/19/24 56/30/56 
f 56/30/56 55/37/55 25/20/25 
f 55/37/55 56/30/56 50/31/50 
f 50/31/50 49/34/49 55/37/55 
f 55/37/55 49/34/49 46/31/46 
f 46/31/46 45/30/45 55/37/55 
f 57/29/57 56/30/56 24/19/24 
f 24/19/24 42/27/42 57/29/57 
f 42/27/42 11/8/11 58/28/58 
f 58/28/58 57/29/57 42/27/42 
f 57/29/57 58/28/58 53/33/53 
f 53/33/53 51/32/51 57/29/57 
f 51/32/51 50/31/50 56/30/56 
f 56/30/56 57/29/57 51/32/51 
f 59/38/59 58/28/58 11/8/11 
f 11/8/11 60/39/60 59/38/59 
f 59/38/59 60/39/60 36/8/36 
f 36/8/36 43/28/43 59/38/59 
f 59/38/59 43/28/43 48/33/48 
f 48/33/48 54/36/54 59/38/59 
f 59/38/59 54/36/54 53/33/53 
f 53/33/53 58/28/58 59/38/59 
f 61/40/61 17/14/17 16/13/16 
f 16/13/16 62/41/62 61/40/61 
f 16/13/16 15/12/15 63/42/63 
f 63/42/63 62/41/62 16/13/16 
f 63/42/63 64/12/64 65/13/65 
f 65/13/65 62/41/62 63/42/63 
f 65/13/65 66/14/66 61/40/61 
f 61/40/61 62/41/62 65/13/65 
f 14/11/14 9/5/9 8/6/8 
f 8/6/8 67/43/67 14/11/14 
f 8/6/8 7/5/7 68/11/68 
f 68/11/68 67/43/67 8/6/8 
f 67/43/67 68/11/68 64/12/64 
f 64/12/64 63/42/63 67/43/67 
f 67/43/67 63/42/63 15/12/15 
f 15/12/15 14/11/14 67/43/67 
f 69/10/69 68/11/68 7/5/7 
f 7/5/7 39/9/39 69/10/69 
f 39/9/39 36/8/36 70/7/70 
f 70/7/70 69/10/69 39/9/39 
f 69/10/69 70/7/70 66/14/66 
f 66/14/66 65/13/65 69/10/69 
f 65/13/65 64/12/64 68/11/68 
f 68/11/68 69/10/69 65/13/65 
f 71/44/71 70/7/70 36/8/36 
f 36/8/36 60/39/60 71/44/71 
f 71/44/71 60/39/60 11/8/11 
f 11/8/11 10/7/10 71/44/71 
f 71/44/71 10/7/10 17/14/17 
f 17/14/17 61/40/61 71/44/71 
f 71/44/71 61/40/61 66/14/66 
f 66/14/66 70/7/70 71/44/71 
s 2
f 32/22/72 38/23/72 5/2/72 
f 33/25/72 32/22/72 5/2/72 
f 5/2/72 3/3/72 2/2/72 
f 2/2/72 29/23/72 28/22/72 
f 5/2/72 2/2/72 28/22/72 
f 33/25/72 5/2/72 28/22/72 
f 28/22/72 41/25/72 22/16/72 
f 33/25/72 28/22/72 22/16/72 
f 33/25/72 22/16/72 20/17/72 
f 33/25/72 20/17/72 19/16/72 
# 138 faces

