# 3ds Max Wavefront OBJ Exporter v0.99 - (c)2007 guruware
# File Created: 26.11.2022 17:56:26

mtllib AletaInfDerManta.mtl

#
# object AletaInfDer
#

v  -33.4050 -6.6539 1.8344
v  -33.4050 -6.6493 2.1907
v  -36.1338 -8.0498 2.2072
v  -36.1337 -8.0498 2.0285
v  -33.4050 -6.6478 2.5765
v  -36.1337 -8.0498 2.3860
v  -35.0412 -7.0192 2.5765
v  -35.0412 -7.0269 2.1907
v  -35.0411 -7.0269 1.8535
v  -33.4050 -6.6221 3.3268
v  -33.4050 -6.6370 2.9622
v  -27.8367 -3.0968 4.1545
v  -27.8367 -3.0371 5.0763
v  -27.8367 -3.1398 3.1477
v  -20.6209 0.6379 3.9255
v  -20.6532 0.7446 5.7017
v  -20.6855 0.8984 7.3309
v  -21.1360 1.2487 10.4392
v  -28.9820 -3.1874 6.8382
v  -28.4911 -3.0934 6.8351
v  -20.9752 1.1505 10.4426
v  -33.2460 -5.9663 4.7024
v  -34.2231 -6.8107 3.9899
v  -32.2280 -5.7200 4.5138
v  -28.0003 -2.9822 6.4136
v  -20.7983 1.0848 9.7048
v  -29.1456 -3.2598 2.1410
v  -29.1456 -3.2598 1.3286
v  -29.1456 -3.2290 3.1477
v  -21.0711 1.2423 3.9255
v  -21.0388 1.2324 2.1494
v  -21.0160 1.2707 0.6648
v  -20.6223 0.6220 -1.3804
v  -28.0003 -3.3154 0.2755
v  -28.4911 -3.3074 0.3706
v  -20.7925 0.8542 -1.3042
v  -32.2280 -5.8681 1.1103
v  -34.2231 -6.8642 1.3905
v  -33.2460 -6.0038 1.2797
v  -28.9820 -3.2717 0.6567
v  -20.9600 1.1319 -0.8086
v  -33.4050 -6.6081 3.6489
v  -36.1338 -8.0498 2.9223
v  -36.1337 -8.0498 2.7436
v  -35.0412 -6.9961 3.7338
v  -35.0412 -6.9807 3.3480
v  -36.1338 -8.0498 2.5648
v  -35.0412 -6.9961 2.9622
v  -35.0412 -7.0269 1.6135
v  -36.1337 -8.0498 1.8497
v  -33.4050 -6.6739 1.5373
v  -27.8367 -3.2443 0.5999
v  -27.8367 -3.1644 1.2524
v  -20.5618 0.6366 -0.6942
v  -20.5657 0.7142 0.5504
v  -27.8367 -3.1459 2.1410
v  -20.5886 0.6712 2.1494
v  -20.7178 1.0063 8.6665
v  -27.8367 -2.9811 5.8284
v  -29.1456 -3.1368 6.1680
v  -29.1456 -3.0753 5.1612
v  -21.1680 1.4250 9.2540
v  -21.1357 1.5273 7.4778
v  -29.1456 -3.1368 4.1545
v  -21.1034 1.4035 5.7017
v  -21.0121 1.2539 -0.2367
v  -29.1456 -3.2598 0.9049
# 67 vertices

vn 0.4947 -0.8686 0.0288
vn 0.4951 -0.8688 0.0061
vn -0.8174 -0.5761 -0.0021
vn -0.8181 -0.5751 -0.0000
vn 0.4950 -0.8688 0.0114
vn -0.8165 -0.5773 -0.0000
vn -0.6150 0.7881 -0.0258
vn -0.6138 0.7894 -0.0065
vn -0.6135 0.7897 0.0000
vn 0.4954 -0.8681 0.0304
vn 0.4945 -0.8688 0.0246
vn 0.4964 -0.8672 0.0400
vn 0.4974 -0.8661 0.0498
vn 0.4972 -0.8674 0.0175
vn 0.3756 -0.9266 0.0210
vn 0.3697 -0.9269 0.0650
vn 0.3726 -0.9249 0.0758
vn -0.5761 0.3611 0.7333
vn -0.4885 0.0223 0.8723
vn 0.2959 -0.8686 0.3974
vn 0.0259 -0.8032 0.5951
vn -0.4488 -0.0935 0.8887
vn 0.1933 -0.8338 0.5171
vn 0.4182 -0.8692 0.2638
vn 0.4423 -0.8831 0.1568
vn 0.3591 -0.9261 0.1156
vn -0.5120 0.8589 -0.0100
vn -0.5128 0.8585 0.0000
vn -0.5089 0.8597 -0.0434
vn -0.4285 0.9026 -0.0406
vn -0.4345 0.9007 0.0016
vn -0.4366 0.8997 -0.0002
vn 0.0224 -0.6447 -0.7641
vn 0.1830 -0.6597 -0.7289
vn -0.3657 0.2849 -0.8861
vn -0.4541 0.4784 -0.7516
vn 0.2758 -0.6843 -0.6750
vn -0.1768 -0.1634 -0.9706
vn -0.4466 0.4770 -0.7570
vn -0.5075 0.6843 -0.5236
vn -0.4784 0.8136 -0.3304
vn 0.4408 -0.8792 0.1810
vn -0.7702 -0.5643 0.2971
vn -0.8090 -0.5878 -0.0000
vn -0.6936 0.2464 0.6769
vn -0.6261 0.7797 0.0004
vn -0.8138 -0.5811 -0.0106
vn -0.6167 0.7865 -0.0322
vn -0.5462 0.5065 -0.6672
vn -0.7347 -0.5160 -0.4404
vn 0.4402 -0.8720 -0.2143
vn 0.4942 -0.8691 0.0198
vn 0.5047 -0.8618 0.0508
vn 0.4027 -0.9152 0.0176
vn 0.3926 -0.9196 0.0103
vn 0.5003 -0.8658 0.0080
vn 0.3792 -0.9252 -0.0124
vn 0.3762 -0.9234 0.0759
vn 0.4811 -0.8728 0.0820
vn -0.5616 0.8205 0.1063
vn -0.5250 0.8511 -0.0004
vn -0.4731 0.8777 0.0761
vn -0.4408 0.8975 -0.0135
vn -0.5097 0.8586 -0.0545
vn -0.4231 0.9036 -0.0663
vn -0.4499 0.8875 -0.0998
vn -0.5308 0.8318 -0.1625
vn 0.0000 9.5346 0.0000
# 68 vertex normals

vt -1.1161 0.6636 -0.8755
vt -1.1161 0.6949 -0.8746
vt -1.2482 0.6963 -1.1592
vt -1.2482 0.6806 -1.1592
vt -1.1161 0.7288 -0.8743
vt -1.2482 0.7120 -1.1592
vt 2.1953 0.7288 -0.9497
vt 2.1953 0.6949 -0.9513
vt 2.2482 0.6963 -1.1592
vt 2.2482 0.7120 -1.1592
vt 2.1953 0.6653 -0.9513
vt 2.2482 0.6806 -1.1592
vt -1.1161 0.7946 -0.8690
vt -1.1161 0.7626 -0.8721
vt -0.8467 0.8673 -0.1527
vt -0.8467 0.9483 -0.1406
vt -0.8467 0.7789 -0.1614
vt -0.4976 0.8472 0.6062
vt -0.4992 1.0032 0.6279
vt -0.5008 1.1463 0.6591
vt -0.5226 1.4193 0.7303
vt -0.9022 1.1030 -0.1711
vt -0.8784 1.1028 -0.1520
vt -0.5148 1.4196 0.7103
vt -1.1085 0.9155 -0.7358
vt -1.1557 0.8529 -0.9074
vt -1.0592 0.8989 -0.6857
vt -0.8547 1.0657 -0.1294
vt -0.5062 1.3548 0.6970
vt 1.9101 0.6905 -0.1858
vt 1.9101 0.6192 -0.1858
vt 1.9101 0.7789 -0.1796
vt 1.5194 0.8472 0.7290
vt 1.5179 0.6912 0.7270
vt 1.5168 0.5609 0.7348
vt 1.4977 0.6030 0.3812
vt 1.8547 -0.1971 0.5267
vt 1.8784 -0.1955 0.5350
vt 1.5059 0.6501 0.3879
vt 2.0592 -0.7158 0.6000
vt 2.1557 -0.9182 0.6246
vt 2.1085 0.6149 -0.7434
vt 1.9022 0.5602 -0.1882
vt 1.8784 0.5350 -0.1955
vt 2.1557 0.6246 -0.9182
vt 1.5140 0.4315 0.7066
vt 1.5059 0.3879 0.6501
vt -1.1161 0.8229 -0.8662
vt -1.2482 0.7591 -1.1592
vt -1.2482 0.7434 -1.1592
vt -1.1953 0.8304 -0.9450
vt 2.1953 0.7965 -0.9419
vt 2.2482 0.7434 -1.1592
vt 2.2482 0.7591 -1.1592
vt 2.1953 0.8304 -0.9450
vt -1.2482 0.7277 -1.1592
vt 2.1953 0.7626 -0.9450
vt 2.2482 0.7277 -1.1592
vt 2.1953 0.6442 -0.9513
vt 2.2482 0.6649 -1.1592
vt 2.1085 -0.7434 0.6149
vt 2.2482 -1.1592 0.6649
vt 2.1953 -0.9513 0.6442
vt -1.0592 0.6000 -0.7158
vt -1.1161 0.6375 -0.8796
vt -1.2482 0.6649 -1.1592
vt -1.1557 0.6246 -0.9182
vt -0.8467 0.5552 -0.1827
vt -0.8467 0.6125 -0.1664
vt -0.8547 0.5267 -0.1971
vt -0.4977 0.3812 0.6030
vt -0.4948 0.4415 0.6059
vt -0.4950 0.5508 0.6217
vt -0.8467 0.6905 -0.1627
vt -0.4961 0.6912 0.6130
vt -0.5023 1.2636 0.6810
vt -0.8467 1.0143 -0.1292
vt 1.9101 1.0442 -0.1608
vt 1.9101 0.9558 -0.1483
vt 2.1085 0.9155 -0.7358
vt 1.9022 1.1030 -0.1711
vt 1.5226 1.4193 0.7303
vt 1.5241 1.3152 0.7661
vt 1.5225 1.1592 0.7869
vt 1.9101 0.8673 -0.1608
vt 1.5210 1.0032 0.7618
vt 1.5166 0.4817 0.7314
vt 1.9101 0.5820 -0.1858
# 88 texture coords

o AletaInfDer
g AletaInfDer
usemtl Material__40
s 1
f 1/1/1 2/2/2 3/3/3 
f 3/3/3 4/4/4 1/1/1 
f 5/5/5 6/6/6 3/3/3 
f 3/3/3 2/2/2 5/5/5 
f 7/7/7 8/8/8 3/9/3 
f 3/9/3 6/10/6 7/7/7 
f 9/11/9 4/12/4 3/9/3 
f 3/9/3 8/8/8 9/11/9 
usemtl Material__33
f 10/13/10 11/14/11 12/15/12 
f 12/15/12 13/16/13 10/13/10 
f 5/5/5 14/17/14 12/15/12 
f 12/15/12 11/14/11 5/5/5 
f 15/18/15 16/19/16 12/15/12 
f 12/15/12 14/17/14 15/18/15 
f 17/20/17 13/16/13 12/15/12 
f 12/15/12 16/19/16 17/20/17 
usemtl Material__40
f 18/21/18 19/22/19 20/23/20 
f 20/23/20 21/24/21 18/21/18 
f 22/25/22 23/26/23 20/23/20 
f 20/23/20 19/22/19 22/25/22 
f 24/27/24 25/28/25 20/23/20 
f 20/23/20 23/26/23 24/27/24 
f 26/29/26 21/24/21 20/23/20 
f 20/23/20 25/28/25 26/29/26 
f 9/11/9 8/8/8 27/30/27 
f 27/30/27 28/31/28 9/11/9 
f 7/7/7 29/32/29 27/30/27 
f 27/30/27 8/8/8 7/7/7 
f 30/33/30 31/34/31 27/30/27 
f 27/30/27 29/32/29 30/33/30 
f 32/35/32 28/31/28 27/30/27 
f 27/30/27 31/34/31 32/35/32 
f 33/36/33 34/37/34 35/38/35 
f 35/38/35 36/39/36 33/36/33 
f 37/40/37 38/41/38 35/38/35 
f 35/38/35 34/37/34 37/40/37 
f 39/42/39 40/43/40 35/44/35 
f 35/44/35 38/45/38 39/42/39 
f 41/46/41 36/47/36 35/44/35 
f 35/44/35 40/43/40 41/46/41 
f 10/13/10 42/48/42 43/49/43 
f 43/49/43 44/50/44 10/13/10 
f 24/27/24 23/26/23 43/49/43 
f 43/49/43 42/48/42 24/27/24 
f 22/25/22 45/51/45 43/49/43 
f 43/49/43 23/26/23 22/25/22 
f 46/52/46 44/53/44 43/54/43 
f 43/54/43 45/55/45 46/52/46 
f 5/5/5 11/14/11 47/56/47 
f 47/56/47 6/6/6 5/5/5 
f 10/13/10 44/50/44 47/56/47 
f 47/56/47 11/14/11 10/13/10 
f 46/52/46 48/57/48 47/58/47 
f 47/58/47 44/53/44 46/52/46 
f 7/7/7 6/10/6 47/58/47 
f 47/58/47 48/57/48 7/7/7 
f 9/11/9 49/59/49 50/60/50 
f 50/60/50 4/12/4 9/11/9 
f 39/61/39 38/41/38 50/62/50 
f 50/62/50 49/63/49 39/61/39 
f 37/64/37 51/65/51 50/66/50 
f 50/66/50 38/67/38 37/64/37 
f 1/1/1 4/4/4 50/66/50 
f 50/66/50 51/65/51 1/1/1 
usemtl Material__33
f 1/1/1 51/65/51 52/68/52 
f 52/68/52 53/69/53 1/1/1 
f 37/64/37 34/70/34 52/68/52 
f 52/68/52 51/65/51 37/64/37 
f 33/71/33 54/72/54 52/68/52 
f 52/68/52 34/70/34 33/71/33 
f 55/73/55 53/69/53 52/68/52 
f 52/68/52 54/72/54 55/73/55 
f 5/5/5 2/2/2 56/74/56 
f 56/74/56 14/17/14 5/5/5 
f 1/1/1 53/69/53 56/74/56 
f 56/74/56 2/2/2 1/1/1 
f 55/73/55 57/75/57 56/74/56 
f 56/74/56 53/69/53 55/73/55 
f 15/18/15 14/17/14 56/74/56 
f 56/74/56 57/75/57 15/18/15 
f 17/20/17 58/76/58 59/77/59 
f 59/77/59 13/16/13 17/20/17 
f 26/29/26 25/28/25 59/77/59 
f 59/77/59 58/76/58 26/29/26 
f 24/27/24 42/48/42 59/77/59 
f 59/77/59 25/28/25 24/27/24 
f 10/13/10 13/16/13 59/77/59 
f 59/77/59 42/48/42 10/13/10 
usemtl Material__40
f 46/52/46 45/55/45 60/78/60 
f 60/78/60 61/79/61 46/52/46 
f 22/80/22 19/81/19 60/78/60 
f 60/78/60 45/55/45 22/80/22 
f 18/82/18 62/83/62 60/78/60 
f 60/78/60 19/81/19 18/82/18 
f 63/84/63 61/79/61 60/78/60 
f 60/78/60 62/83/62 63/84/63 
f 7/7/7 48/57/48 64/85/64 
f 64/85/64 29/32/29 7/7/7 
f 46/52/46 61/79/61 64/85/64 
f 64/85/64 48/57/48 46/52/46 
f 63/84/63 65/86/65 64/85/64 
f 64/85/64 61/79/61 63/84/63 
f 30/33/30 29/32/29 64/85/64 
f 64/85/64 65/86/65 30/33/30 
f 32/35/32 66/87/66 67/88/67 
f 67/88/67 28/31/28 32/35/32 
f 41/46/41 40/43/40 67/88/67 
f 67/88/67 66/87/66 41/46/41 
f 39/42/39 49/59/49 67/88/67 
f 67/88/67 40/43/40 39/42/39 
f 9/11/9 28/31/28 67/88/67 
f 67/88/67 49/59/49 9/11/9 
usemtl Material__33
s 2
f 15/18/68 57/75/68 55/73/68 
f 55/73/68 54/72/68 33/71/68 
f 33/71/68 36/39/68 41/46/68 
f 55/73/68 33/71/68 41/46/68 
f 41/46/68 66/87/68 32/35/68 
f 41/46/68 32/35/68 31/34/68 
f 41/46/68 31/34/68 30/33/68 
f 30/33/68 65/86/68 63/84/68 
f 63/84/68 62/83/68 18/82/68 
f 30/33/68 63/84/68 18/82/68 
f 18/82/68 21/24/68 26/29/68 
f 26/29/68 58/76/68 17/20/68 
f 18/82/68 26/29/68 17/20/68 
f 30/33/68 18/82/68 17/20/68 
f 41/46/68 30/33/68 17/20/68 
f 55/73/68 41/46/68 17/20/68 
f 15/18/68 55/73/68 17/20/68 
f 15/18/68 17/20/68 16/19/68 
# 130 faces

