# 3ds Max Wavefront OBJ Exporter v0.99 - (c)2007 guruware
# File Created: 05.01.2023 05:21:30

mtllib AcuarioTortuga.mtl

#
# object lateTortu
#

v  0.2118 0.8598 54.7876
v  0.2118 0.8598 69.4507
v  0.2118 30.5570 69.4507
v  0.2118 30.5570 54.7876
v  83.5267 0.8598 69.4507
v  83.5267 30.5570 69.4507
v  83.5267 0.8598 54.7876
v  83.5267 30.5570 54.7876
# 8 vertices

vn -1.0000 0.0000 -0.0000
vn -0.0000 0.0000 1.0000
vn 1.0000 0.0000 0.0000
# 3 vertex normals

vt 0.0000 0.0000 0.0000
vt 1.0000 0.0000 0.0000
vt 1.0000 1.0000 0.0000
vt 0.0000 1.0000 0.0000
# 4 texture coords

o lateTortu
g lateTortu
usemtl Material__117
s 16
f 1/1/1 2/2/1 3/3/1 
f 3/3/1 4/4/1 1/1/1 
s 32
f 2/1/2 5/2/2 6/3/2 
f 6/3/2 3/4/2 2/1/2 
s 64
f 5/1/3 7/2/3 8/3/3 
f 8/3/3 6/4/3 5/1/3 
# 6 faces

#
# object pisoTortu
#

v  83.5267 0.8598 54.7876
v  83.5267 0.8598 69.4507
v  0.2118 0.8598 69.4507
v  0.2118 0.8598 54.7876
# 4 vertices

vn 0.0000 -1.0000 -0.0000
# 1 vertex normals

vt 1.0000 0.0000 0.0000
vt 1.0000 1.0000 0.0000
vt 0.0000 1.0000 0.0000
vt 0.0000 0.0000 0.0000
# 4 texture coords

o pisoTortu
g pisoTortu
usemtl Material__118
s 2
f 9/5/4 10/6/4 11/7/4 
f 11/7/4 12/8/4 9/5/4 
# 2 faces

#
# object techoTortu
#

v  83.5267 30.5570 54.7876
v  0.2118 30.5570 54.7876
v  0.2118 30.5570 69.4507
v  83.5267 30.5570 69.4507
# 4 vertices

vn 0.0000 1.0000 -0.0000
# 1 vertex normals

vt 0.0000 0.0000 0.0000
vt 1.0000 0.0000 0.0000
vt 1.0000 1.0000 0.0000
vt 0.0000 1.0000 0.0000
# 4 texture coords

o techoTortu
g techoTortu
usemtl Material__116
s 4
f 13/9/5 14/10/5 15/11/5 
f 15/11/5 16/12/5 13/9/5 
# 2 faces

