# 3ds Max Wavefront OBJ Exporter v0.99 - (c)2007 guruware
# File Created: 22.11.2022 23:58:59

mtllib AletaDerTiburon.mtl

#
# object AletaDer
#

v  -3.2827 -0.8716 0.8875
v  -3.2895 -0.7885 0.8296
v  -3.2015 -0.6614 0.9742
v  -3.1282 -0.6837 0.9749
v  -3.0518 -0.5015 0.9028
v  -2.9805 -0.5030 1.0205
v  -3.1231 -0.6204 2.4422
v  -3.3995 -0.9753 2.1505
v  -3.2710 -1.1077 2.1972
v  -2.9891 -0.7381 2.4967
v  -3.6403 -1.3415 1.7893
v  -3.5775 -1.4495 1.8435
v  -3.8888 -1.6794 1.4274
v  -3.8625 -1.7425 1.4714
v  -2.2646 1.0203 2.6044
v  -2.0962 1.2582 2.5813
v  -1.9694 1.2042 1.8329
v  -2.1188 0.9965 1.7855
v  -2.2305 0.8419 3.2392
v  -2.1072 1.0856 3.3338
v  -2.0431 0.6022 3.4259
v  -1.9090 0.7947 3.5727
v  -2.4060 0.5216 3.0798
v  -2.2580 0.3701 3.2039
v  -2.6451 0.1650 2.9041
v  -2.5061 0.0387 3.0102
v  -2.8728 -0.2235 2.6832
v  -2.7468 -0.3450 2.7731
v  -2.6860 0.2983 2.5643
v  -3.0205 -0.2831 2.2719
v  -3.5051 -0.9891 1.7333
v  -3.8892 -1.5679 1.2815
v  -1.9608 0.9955 1.2499
v  -1.8500 1.1378 1.3620
v  -2.0891 0.6947 1.1084
v  -2.3128 0.7172 1.7615
v  -2.4684 0.6716 2.6997
v  -2.5546 0.4058 1.7066
v  -2.9193 -0.1121 1.5110
v  -3.4200 -0.8132 1.1651
v  -3.8200 -1.4057 0.8475
v  -4.0862 -1.7834 0.6560
v  -4.1375 -1.8982 0.9621
v  -4.0860 -1.7993 0.5391
v  -3.7941 -1.3896 0.6857
v  -3.7705 -1.4032 0.6178
v  -4.0788 -1.8246 0.4916
v  -3.4689 -1.0174 0.7493
v  -2.8521 -0.2342 0.9916
v  -2.7950 -0.1418 1.1119
v  -2.3587 0.3814 1.1289
v  -2.6501 0.0272 1.0774
v  -1.7460 1.0717 1.1499
v  -1.8301 0.9883 1.0061
v  -4.2668 -2.0392 0.5235
v  -4.2769 -2.0783 0.4938
v  -4.3203 -2.1142 0.5950
v  -4.2524 -2.0034 0.6104
v  -4.1875 -1.9279 0.5160
v  -4.1887 -1.9649 0.4857
v  -4.1651 -1.9832 1.0519
v  -4.1235 -2.0202 1.0431
v  -4.3310 -2.1259 0.5943
v  -4.3626 -2.1993 0.5783
v  -4.3084 -2.1452 0.5884
v  -4.3019 -2.1503 0.6720
v  -4.2752 -2.1303 0.7533
v  -4.3018 -2.1063 0.7585
v  -4.3316 -2.1509 0.5217
v  -4.2410 -2.0597 0.5154
v  -4.2700 -2.0425 0.7607
v  -3.7428 -1.4293 0.6636
v  -3.7434 -1.5695 1.0297
v  -4.0236 -1.8340 0.6326
v  -4.0503 -1.8278 0.5257
v  -4.1566 -1.9524 0.5055
v  -4.2923 -2.1254 0.5385
v  -4.2212 -2.0768 0.6945
v  -4.0620 -1.9625 0.9446
v  -3.8154 -1.7402 1.4112
v  -3.4372 -1.0596 0.8002
v  -3.2881 -1.0714 1.3443
v  -2.0214 0.2936 2.9238
v  -1.7895 0.4926 3.0773
v  -2.2694 -0.0203 2.7593
v  -2.5714 -0.3901 2.5680
v  -2.8819 -0.7506 2.3430
v  -3.1886 -1.1143 2.0719
v  -3.5078 -1.4610 1.7527
v  -1.8265 0.6669 2.1020
v  -2.1628 0.3401 1.9366
v  -2.6884 -0.3356 1.7134
v  -2.8327 -0.3224 1.0662
v  -2.7257 -0.1763 1.2013
v  -2.5502 0.0189 1.1381
v  -2.2838 0.3364 1.1908
v  -2.0168 0.6399 1.1802
v  -1.7839 0.8859 1.1642
v  -1.6786 0.9620 1.3085
v  -1.6723 0.7411 2.3567
v  -1.6674 0.5751 3.2223
# 101 vertices

vn 0.8123 -0.4094 -0.4153
vn 0.1953 0.4925 -0.8481
vn -0.3809 0.5766 -0.7228
vn 0.5800 -0.2177 -0.7850
vn -0.1265 -0.0195 -0.9918
vn 0.7470 -0.5591 -0.3596
vn -0.7683 0.0948 0.6331
vn -0.8167 0.0929 0.5696
vn -0.0240 -0.6629 0.7483
vn -0.0025 -0.6004 0.7997
vn -0.8718 0.1403 0.4694
vn -0.2243 -0.6479 0.7279
vn -0.8768 0.2135 0.4308
vn -0.3162 -0.6533 0.6879
vn -0.8417 0.5399 -0.0043
vn -0.8373 0.5440 -0.0550
vn -0.8044 0.5549 -0.2124
vn -0.7865 0.5858 -0.1959
vn -0.8417 0.2338 0.4867
vn -0.8794 0.2353 0.4139
vn -0.2480 -0.5268 0.8130
vn -0.5262 -0.4889 0.6957
vn -0.8073 0.1973 0.5562
vn -0.1821 -0.5006 0.8463
vn -0.8011 0.1954 0.5658
vn -0.1213 -0.4404 0.8896
vn -0.8149 0.1467 0.5608
vn -0.1117 -0.4996 0.8590
vn -0.8759 0.4725 0.0974
vn -0.8681 0.4779 0.1344
vn -0.8696 0.4758 0.1319
vn -0.8697 0.4596 0.1800
vn -0.7192 0.6140 -0.3253
vn -0.6108 0.7023 -0.3656
vn -0.3451 0.0581 -0.9368
vn -0.7946 0.5778 -0.1864
vn -0.8710 0.4807 0.1013
vn -0.7812 0.6069 -0.1461
vn -0.7892 0.6028 -0.1170
vn -0.7855 0.6115 -0.0955
vn -0.8228 0.5684 -0.0012
vn -0.8064 0.5912 -0.0098
vn -0.8362 0.5269 0.1521
vn -0.7385 0.6203 -0.2642
vn -0.7463 0.6263 -0.2255
vn 0.0171 0.2898 -0.9569
vn 0.0184 0.1644 -0.9862
vn -0.0343 0.3643 -0.9306
vn 0.1848 0.4902 -0.8518
vn -0.0509 0.4776 -0.8771
vn -0.2454 0.2555 -0.9351
vn -0.2576 0.1081 -0.9602
vn 0.4858 0.5223 -0.7009
vn 0.1460 0.2676 -0.9524
vn -0.8135 0.5170 -0.2664
vn -0.2636 -0.1652 -0.9504
vn -0.8065 0.5878 -0.0632
vn -0.8233 0.5674 -0.0171
vn -0.7433 0.5787 -0.3355
vn -0.0749 -0.0143 -0.9971
vn -0.8382 -0.1278 0.5301
vn 0.1169 -0.9184 0.3780
vn -0.9472 0.2155 0.2375
vn -0.5484 -0.8213 0.1570
vn 0.3968 -0.8852 0.2427
vn -0.6580 -0.7375 0.1520
vn -0.5411 -0.8031 0.2496
vn -0.6745 -0.6068 0.4205
vn -0.4093 -0.4196 -0.8102
vn 0.6174 -0.5567 -0.5559
vn -0.8531 0.5058 0.1279
vn 0.7731 -0.4636 -0.4329
vn 0.7868 -0.5935 -0.1697
vn 0.7770 -0.5950 -0.2054
vn 0.7534 -0.4904 -0.4381
vn 0.6274 -0.4851 -0.6092
vn 0.6678 -0.6935 -0.2704
vn 0.7135 -0.6889 -0.1281
vn 0.7172 -0.6904 -0.0945
vn 0.7520 -0.6227 -0.2163
vn 0.6239 -0.7762 0.0906
vn 0.7647 -0.4465 -0.4647
vn 0.7919 -0.5814 -0.1867
vn 0.6251 -0.7508 0.2133
vn 0.5238 -0.8404 0.1394
vn 0.6955 -0.6777 0.2387
vn 0.6915 -0.6879 0.2203
vn 0.6977 -0.6989 0.1573
vn 0.6824 -0.7191 0.1311
vn 0.6231 -0.7703 0.1354
vn 0.6810 -0.7175 -0.1467
vn 0.7659 -0.6288 -0.1341
vn 0.7967 -0.5815 -0.1649
vn 0.8347 -0.3891 -0.3897
vn 0.7487 -0.5156 -0.4166
vn 0.6261 -0.5356 -0.5667
vn 0.6749 -0.5396 -0.5033
vn 0.6185 -0.6310 -0.4683
vn 0.7613 -0.5218 -0.3848
vn 0.7714 -0.5080 -0.3832
vn 0.4817 -0.8561 -0.1873
vn 0.4768 -0.8445 0.2439
vn 0.2413 -0.2768 0.9301
vn 0.1615 0.2130 0.9636
vn -0.2835 -0.5355 0.7955
vn 0.0000 -0.0000 4422280614886061262241792.0000
# 106 vertex normals

vt 0.8366 -1.7651 0.0000
vt 0.8333 -1.7715 0.0000
vt 0.8187 -1.7507 0.0000
vt 0.8216 -1.7438 0.0000
vt 0.8026 -1.7330 0.0000
vt 0.8061 -1.7256 0.0000
vt 0.7347 -1.8449 0.0000
vt 0.7703 -1.8643 0.0000
vt 0.7677 -1.8733 0.0000
vt 0.7319 -1.8571 0.0000
vt 0.8055 -1.8850 0.0000
vt 0.8042 -1.8905 0.0000
vt 0.8407 -1.9025 0.0000
vt 0.8399 -1.9068 0.0000
vt 0.6331 -1.7177 0.0000
vt 0.6197 -1.6887 0.0000
vt 0.6493 -1.6331 0.0000
vt 0.6620 -1.6560 0.0000
vt 0.6116 -1.7680 0.0000
vt 0.5939 -1.7490 0.0000
vt 0.6058 -1.7973 0.0000
vt 0.5849 -1.7883 0.0000
vt 0.6377 -1.7855 0.0000
vt 0.6324 -1.8081 0.0000
vt 0.6687 -1.8028 0.0000
vt 0.6637 -1.8216 0.0000
vt 0.7019 -1.8240 0.0000
vt 0.6973 -1.8398 0.0000
vt 0.6804 -1.7754 0.0000
vt 0.7284 -1.8092 0.0000
vt 0.7953 -1.8529 0.0000
vt 0.8446 -1.8872 0.0000
vt 0.6835 -1.6172 0.0000
vt 0.6722 -1.6035 0.0000
vt 0.7066 -1.6279 0.0000
vt 0.6804 -1.6815 0.0000
vt 0.6502 -1.7545 0.0000
vt 0.7101 -1.7077 0.0000
vt 0.7556 -1.7449 0.0000
vt 0.8197 -1.7997 0.0000
vt 0.8626 -1.8491 0.0000
vt 0.8856 -1.8805 0.0000
vt 0.8723 -1.9036 0.0000
vt 0.8917 -1.8803 0.0000
vt 0.8707 -1.8414 0.0000
vt 0.8755 -1.8388 0.0000
vt 0.8954 -1.8816 0.0000
vt 0.8479 -1.7924 0.0000
vt 0.7865 -1.7152 0.0000
vt 0.7728 -1.7000 0.0000
vt 0.7314 -1.6564 0.0000
vt 0.7591 -1.6848 0.0000
vt 0.6852 -1.5945 0.0000
vt 0.6918 -1.6038 0.0000
vt 0.9023 -1.9096 0.0000
vt 0.9030 -1.9155 0.0000
vt 0.9015 -1.9183 0.0000
vt 0.8957 -1.9057 0.0000
vt 0.8990 -1.8943 0.0000
vt 0.9018 -1.8985 0.0000
vt 0.8708 -1.9134 0.0000
vt 0.8715 -1.9177 0.0000
vt 0.9002 -1.9233 0.0000
vt 0.9018 -1.9296 0.0000
vt 0.9017 -1.9353 0.0000
vt 0.8972 -1.9306 0.0000
vt 0.8916 -1.9268 0.0000
vt 0.8908 -1.9208 0.0000
vt 0.8960 -1.9238 0.0000
vt 0.9028 -1.9254 0.0000
vt 0.9049 -1.9154 0.0000
vt 0.8882 -1.9135 0.0000
vt 0.8513 -1.9931 0.0000
vt 0.8475 -1.9508 0.0000
vt 0.8793 -1.9688 0.0000
vt 0.8819 -1.9809 0.0000
vt 0.8923 -1.9710 0.0000
vt 0.9036 -1.8967 0.0000
vt 0.9040 -1.9285 0.0000
vt 0.8914 -1.9399 0.0000
vt 0.8728 -1.9315 0.0000
vt 0.8941 -1.9587 0.0000
vt 0.8409 -1.9094 0.0000
vt 0.8124 -2.0000 0.0000
vt 0.7916 -1.9489 0.0000
vt 0.9020 -1.9474 0.0000
vt 0.6355 -1.8347 0.0000
vt 0.6095 -1.8262 0.0000
vt 0.6648 -1.8449 0.0000
vt 0.6988 -1.8578 0.0000
vt 0.7329 -1.8686 0.0000
vt 0.7692 -1.8830 0.0000
vt 0.8050 -1.8958 0.0000
vt 0.6247 -1.9163 0.0000
vt 0.6581 -1.9278 0.0000
vt 0.7200 -1.9393 0.0000
vt 0.7563 -2.0000 0.0000
vt 0.7939 -2.0000 0.0000
vt 0.7754 -2.0000 0.0000
vt 0.7372 -2.0000 0.0000
vt 0.7212 -2.0000 0.0000
vt 0.7053 -2.0000 0.0000
vt 0.6744 -2.0000 0.0000
vt 0.6491 -2.0000 0.0000
vt 0.6306 -2.0000 0.0000
vt 0.6242 -2.0000 0.0000
vt 0.6067 -1.8972 0.0000
vt 0.5911 -1.8212 0.0000
vt 0.6970 -1.5940 0.0000
vt 0.6913 -1.5741 0.0000
vt 0.7125 -1.6191 0.0000
vt 0.7354 -1.6465 0.0000
vt 0.7620 -1.6758 0.0000
vt 0.7763 -1.6916 0.0000
vt 0.7906 -1.7074 0.0000
vt 0.9001 -1.9592 0.0000
vt 0.8970 -1.8783 0.0000
vt 0.8785 -1.8337 0.0000
vt 0.8517 -1.7865 0.0000
# 119 texture coords

o AletaDer
g AletaDer
usemtl _Sharkgreatwhiteshark
s 1
f 1/1/1 2/2/2 3/3/3 
f 3/3/3 4/4/4 1/1/1 
f 3/3/3 5/5/5 6/6/6 
f 6/6/6 4/4/4 3/3/3 
f 7/7/7 8/8/8 9/9/9 
f 9/9/9 10/10/10 7/7/7 
f 8/8/8 11/11/11 12/12/12 
f 12/12/12 9/9/9 8/8/8 
f 11/11/11 13/13/13 14/14/14 
f 14/14/14 12/12/12 11/11/11 
f 15/15/15 16/16/16 17/17/17 
f 17/17/17 18/18/18 15/15/15 
f 15/15/15 19/19/19 20/20/20 
f 20/20/20 16/16/16 15/15/15 
f 19/19/19 21/21/21 22/22/22 
f 22/22/22 20/20/20 19/19/19 
f 23/23/23 24/24/24 21/21/21 
f 21/21/21 19/19/19 23/23/23 
f 23/23/23 25/25/25 26/26/26 
f 26/26/26 24/24/24 23/23/23 
f 25/25/25 27/27/27 28/28/28 
f 28/28/28 26/26/26 25/25/25 
f 27/27/27 7/7/7 10/10/10 
f 10/10/10 28/28/28 27/27/27 
f 27/27/27 25/25/25 29/29/29 
f 27/27/27 29/29/29 30/30/30 
f 31/31/31 32/32/32 13/13/13 
f 31/31/31 13/13/13 11/11/11 
f 31/31/31 11/11/11 8/8/8 
f 30/30/30 31/31/31 8/8/8 
f 30/30/30 8/8/8 7/7/7 
f 27/27/27 30/30/30 7/7/7 
f 33/33/33 18/18/18 17/17/17 
f 17/17/17 34/34/34 33/33/33 
f 33/33/33 35/35/35 36/36/36 
f 36/36/36 18/18/18 33/33/33 
f 36/36/36 37/37/37 15/15/15 
f 15/15/15 18/18/18 36/36/36 
f 37/37/37 23/23/23 19/19/19 
f 19/19/19 15/15/15 37/37/37 
f 37/37/37 29/29/29 25/25/25 
f 25/25/25 23/23/23 37/37/37 
f 38/38/38 39/39/39 30/30/30 
f 30/30/30 29/29/29 38/38/38 
f 39/39/39 40/40/40 31/31/31 
f 31/31/31 30/30/30 39/39/39 
f 40/40/40 41/41/41 32/32/32 
f 32/32/32 31/31/31 40/40/40 
f 41/41/41 42/42/42 43/43/43 
f 43/43/43 32/32/32 41/41/41 
f 29/29/29 37/37/37 36/36/36 
f 36/36/36 38/38/38 29/29/29 
f 44/44/44 45/45/45 46/46/46 
f 46/46/46 47/47/47 44/44/44 
f 48/48/48 46/46/46 45/45/45 
f 45/45/45 41/41/41 40/40/40 
f 48/48/48 45/45/45 40/40/40 
f 48/48/48 40/40/40 2/2/2 
f 3/3/3 2/2/2 40/40/40 
f 3/3/3 40/40/40 39/39/39 
f 3/3/3 39/39/39 49/49/49 
f 39/39/39 50/50/50 49/49/49 
f 38/38/38 51/51/51 52/52/52 
f 39/39/39 38/38/38 52/52/52 
f 39/39/39 52/52/52 50/50/50 
f 36/36/36 35/35/35 51/51/51 
f 51/51/51 38/38/38 36/36/36 
f 34/34/34 53/53/53 54/54/54 
f 54/54/54 33/33/33 34/34/34 
f 49/49/49 5/5/5 3/3/3 
f 55/55/55 56/56/56 57/57/57 
f 57/57/57 58/58/58 55/55/55 
f 59/59/59 60/60/60 55/55/55 
f 55/55/55 58/58/58 59/59/59 
f 58/58/58 42/42/42 44/44/44 
f 44/44/44 59/59/59 58/58/58 
f 42/42/42 41/41/41 45/45/45 
f 45/45/45 44/44/44 42/42/42 
f 14/14/14 13/13/13 61/61/61 
f 61/61/61 62/62/62 14/14/14 
f 63/63/63 64/64/64 65/65/65 
f 65/65/65 66/66/66 67/67/67 
f 67/67/67 62/62/62 61/61/61 
f 65/65/65 67/67/67 61/61/61 
f 65/65/65 61/61/61 68/68/68 
f 63/63/63 65/65/65 68/68/68 
f 57/69/57 63/63/63 68/68/68 
f 69/70/69 64/64/64 63/63/63 
f 57/57/57 56/56/56 69/70/69 
f 69/70/69 63/63/63 57/57/57 
f 60/60/60 70/71/70 56/56/56 
f 56/56/56 55/55/55 60/60/60 
f 59/59/59 44/44/44 47/47/47 
f 47/47/47 60/60/60 59/59/59 
f 42/42/42 58/58/58 71/72/71 
f 71/72/71 43/43/43 42/42/42 
f 57/69/57 68/68/68 71/72/71 
f 71/72/71 58/58/58 57/69/57 
f 61/61/61 43/43/43 71/72/71 
f 71/72/71 68/68/68 61/61/61 
f 13/13/13 32/32/32 43/43/43 
f 43/43/43 61/61/61 13/13/13 
f 72/73/72 73/74/73 74/75/74 
f 74/75/74 75/76/75 72/73/72 
f 75/76/75 74/75/74 76/77/76 
f 60/60/60 76/78/76 70/71/70 
f 77/79/77 69/70/69 56/56/56 
f 56/56/56 70/71/70 77/79/77 
f 65/65/65 64/64/64 69/70/69 
f 69/70/69 77/79/77 65/65/65 
f 78/80/78 79/81/79 62/62/62 
f 62/62/62 67/67/67 78/80/78 
f 78/80/78 60/82/80 74/75/74 
f 74/75/74 79/81/79 78/80/78 
f 73/74/73 80/83/81 79/81/79 
f 79/81/79 74/75/74 73/74/73 
f 72/73/72 81/84/82 82/85/83 
f 82/85/83 73/74/73 72/73/72 
f 78/80/78 65/65/65 77/86/77 
f 77/86/77 60/82/80 78/80/78 
f 78/80/78 67/67/67 66/66/66 
f 66/66/66 65/65/65 78/80/78 
f 24/24/24 83/87/84 84/88/85 
f 84/88/85 21/21/21 24/24/24 
f 26/26/26 85/89/86 83/87/84 
f 83/87/84 24/24/24 26/26/26 
f 28/28/28 86/90/87 85/89/86 
f 85/89/86 26/26/26 28/28/28 
f 10/10/10 87/91/88 86/90/87 
f 86/90/87 28/28/28 10/10/10 
f 9/9/9 88/92/89 87/91/88 
f 87/91/88 10/10/10 9/9/9 
f 12/12/12 89/93/90 88/92/89 
f 88/92/89 9/9/9 12/12/12 
f 89/93/90 82/85/83 88/92/89 
f 80/83/81 73/74/73 82/85/83 
f 82/85/83 89/93/90 80/83/81 
f 80/83/81 14/14/14 62/62/62 
f 62/62/62 79/81/79 80/83/81 
f 89/93/90 12/12/12 14/14/14 
f 14/14/14 80/83/81 89/93/90 
f 90/94/91 84/88/85 83/87/84 
f 83/87/84 85/89/86 91/95/92 
f 90/94/91 83/87/84 91/95/92 
f 86/90/87 92/96/93 91/95/92 
f 91/95/92 85/89/86 86/90/87 
f 87/91/88 88/92/89 92/96/93 
f 92/96/93 86/90/87 87/91/88 
f 82/85/83 6/97/6 92/96/93 
f 92/96/93 88/92/89 82/85/83 
f 1/98/1 4/99/4 82/85/83 
f 82/85/83 81/84/82 1/98/1 
f 6/97/6 82/85/83 4/99/4 
f 93/100/94 94/101/95 92/96/93 
f 92/96/93 6/97/6 93/100/94 
f 92/96/93 94/101/95 95/102/96 
f 96/103/97 91/95/92 92/96/93 
f 92/96/93 95/102/96 96/103/97 
f 91/95/92 96/103/97 97/104/98 
f 98/105/99 90/94/91 91/95/92 
f 91/95/92 97/104/98 98/105/99 
f 99/106/100 100/107/101 90/94/91 
f 90/94/91 98/105/99 99/106/100 
f 100/107/101 101/108/102 84/88/85 
f 84/88/85 90/94/91 100/107/101 
f 101/108/102 22/22/22 21/21/21 
f 21/21/21 84/88/85 101/108/102 
f 98/109/99 54/54/54 53/53/53 
f 53/53/53 99/110/100 98/109/99 
f 97/111/98 35/35/35 54/54/54 
f 54/54/54 98/109/99 97/111/98 
f 96/112/97 51/51/51 35/35/35 
f 35/35/35 97/111/98 96/112/97 
f 95/113/96 52/52/52 51/51/51 
f 51/51/51 96/112/97 95/113/96 
f 94/114/95 50/50/50 52/52/52 
f 52/52/52 95/113/96 94/114/95 
f 93/115/94 49/49/49 50/50/50 
f 50/50/50 94/114/95 93/115/94 
f 93/115/94 6/6/6 5/5/5 
f 5/5/5 49/49/49 93/115/94 
f 58/58/103 63/63/103 57/69/103 
f 60/82/104 77/86/104 70/116/104 
f 47/47/47 75/117/75 76/78/76 
f 76/78/76 60/60/60 47/47/47 
f 46/46/46 72/118/72 75/117/75 
f 75/117/75 47/47/47 46/46/46 
f 46/46/46 48/48/48 81/119/82 
f 81/119/82 72/118/72 46/46/46 
f 2/2/2 1/1/1 81/119/82 
f 81/119/82 48/48/48 2/2/2 
f 76/77/105 74/75/105 60/82/105 
f 54/54/54 35/35/35 33/33/33 
usemtl _Sharkgreatwhiteshark_teet
s 2
f 60/82/106 77/86/106 70/71/106 
f 60/82/106 70/71/106 76/78/106 
f 74/75/106 60/82/106 76/78/106 
f 58/58/106 57/69/106 63/63/106 
f 77/86/106 60/82/106 70/116/106 
f 74/75/106 76/77/106 60/82/106 
f 20/20/106 22/22/106 101/108/106 
f 101/108/106 100/107/106 99/106/106 
f 99/106/106 53/53/106 34/34/106 
f 101/108/106 99/106/106 34/34/106 
f 20/20/106 101/108/106 34/34/106 
f 20/20/106 34/34/106 17/17/106 
f 16/16/106 20/20/106 17/17/106 
# 206 faces

